<?xml version="1.0" encoding="utf-8"?>
<!-- Generator: Adobe Illustrator 21.0.0, SVG Export Plug-In . SVG Version: 6.00 Build 0)  -->
<svg version="1.1" id="Layer_1" xmlns="http://www.w3.org/2000/svg" xmlns:xlink="http://www.w3.org/1999/xlink" x="0px" y="0px"
	 viewBox="0 0 16 16" style="enable-background:new 0 0 16 16;" xml:space="preserve">
<path d="M15,1H4C3.4,1,3,1.5,3,2v2.5H1c-0.5,0-1,0.4-1,1v6v1.8c0,1,0.9,1.8,2,1.8h2l0,0h8.5H15c0.5,0,1-0.5,1-1V2
	C16,1.5,15.5,1,15,1 M15,14H4V2h11V14z"/>
<path d="M13,5V4h-0.5H6v1"/>
<path d="M6,6h7v1H6V6z"/>
<path d="M6,8h7v1H6V8z"/>
</svg>
